<svg width="80" height="80" viewBox="0 0 80 80" fill="none" xmlns="http://www.w3.org/2000/svg">
<path d="M32.5203 28.4868C31.7073 28.4868 30.8943 28.1789 30.2439 27.5631L19.5122 17.4022C17.5609 15.5548 16.4227 13.0916 16.4227 10.4744C16.4227 7.85719 17.5609 5.39395 19.5122 3.54653C23.0894 0.159573 28.4553 -0.302284 32.5203 2.16095C34.1463 1.08329 36.0975 0.62143 38.2113 0.62143C40.9756 0.62143 43.5772 1.6991 45.5284 3.54653C47.4796 5.39395 48.6179 7.85719 48.6179 10.4744C48.6179 13.0916 47.4796 15.5548 45.5284 17.4022L34.7967 27.5631C34.1463 28.1789 33.3333 28.4868 32.5203 28.4868ZM26.8292 6.62557C25.8536 6.62557 24.878 6.93348 24.065 7.70324C23.252 8.473 22.9268 9.39672 22.9268 10.3204C22.9268 11.2441 23.4146 12.3218 24.065 12.9376L32.5203 20.9431L40.9756 12.9376C41.7886 12.1679 42.1138 11.2441 42.1138 10.3204C42.1138 9.39672 41.626 8.31905 40.9756 7.70324C40.1626 6.93348 39.187 6.62557 38.2113 6.62557C37.2357 6.62557 36.0975 7.08743 35.4471 7.70324L34.9593 8.1651C33.6585 9.39672 31.7073 9.39672 30.4065 8.1651L29.5935 7.70324C28.9431 7.08743 27.8048 6.62557 26.8292 6.62557Z" fill="#252525"/>
<path d="M75.122 42.8044C72.1951 40.803 68.4553 40.0333 64.8781 40.957V39.7253C64.8781 38.0319 63.4146 36.6463 61.626 36.6463H3.25203C1.46341 36.6463 0 38.0319 0 39.7253V49.1164C0 59.1233 5.20325 68.0526 13.0081 73.7488H5.85366C4.06504 73.7488 2.60163 75.1344 2.60163 76.8279C2.60163 78.5214 4.06504 79.9069 5.85366 79.9069H61.1382C62.9268 79.9069 64.3902 78.5214 64.3902 76.8279C64.3902 75.1344 62.9268 73.7488 61.1382 73.7488H51.8699C54.1463 72.2093 56.0976 70.3619 57.8862 68.2065L72.5203 62.5103C77.0732 60.8168 80 56.6601 80 52.0415C80 48.3467 78.2114 44.9597 75.122 42.8044ZM6.50407 49.1164V42.8044H58.374V49.1164C58.374 62.6643 46.6667 73.7488 32.3577 73.7488C18.2114 73.7488 6.50407 62.6643 6.50407 49.1164ZM70.0813 56.8141L62.9268 59.5852C64.2276 56.3522 64.8781 52.8113 64.8781 49.1164V47.269L66.3415 46.8072C67.9675 46.3453 69.7561 46.6532 71.2195 47.5769C72.6829 48.5006 73.4959 50.0402 73.4959 51.7336C73.4959 54.0429 72.1951 56.0443 70.0813 56.8141Z" fill="#252525"/>
</svg>
