<svg width="83" height="80" viewBox="0 0 83 80" fill="none" xmlns="http://www.w3.org/2000/svg">
<path d="M43.8957 26.6161C42.041 26.6161 40.1862 27.2506 38.4861 28.2022C36.9404 27.092 35.0857 26.6161 33.0764 26.6161C30.4488 26.6161 27.9758 27.7264 26.1211 29.6296C24.2663 31.5329 23.1844 34.0705 23.1844 36.7668C23.1844 39.4631 24.2663 42.0007 26.1211 43.904L36.3222 54.3718C36.9404 55.0062 37.7132 55.3234 38.4861 55.3234C39.2589 55.3234 40.0317 55.0062 40.6499 54.3718L50.851 43.904C52.7058 42.0007 53.7877 39.4631 53.7877 36.7668C53.7877 34.0705 52.7058 31.5329 50.851 29.6296C48.9963 27.7264 46.6779 26.6161 43.8957 26.6161ZM46.6779 39.6217L38.6406 47.869L30.6034 39.6217C29.8306 38.8286 29.5214 37.877 29.5214 36.9254C29.5214 35.9738 29.9851 34.8635 30.6034 34.2291C31.3762 33.4361 32.3036 33.1189 33.2309 33.1189C34.1583 33.1189 35.2402 33.5947 35.8585 34.2291L36.3222 34.7049C37.5587 35.9738 39.4134 35.9738 40.6499 34.7049L41.1136 34.2291C41.8864 33.4361 42.8138 33.1189 43.7412 33.1189C44.6685 33.1189 45.7505 33.5947 46.3687 34.2291C47.1415 35.0221 47.4507 35.9738 47.4507 36.9254C47.4507 37.877 47.2961 38.8286 46.6779 39.6217Z" fill="#252525"/>
<path d="M76.1993 31.0571C72.0261 13.2935 56.7244 0.605225 38.6406 0.605225C17.311 0.605225 0 18.3688 0 40.2561C0 62.1433 17.311 79.9069 38.6406 79.9069C56.7244 79.9069 72.1806 67.2186 76.1993 49.4551C80.0633 48.5034 83 45.0142 83 40.7319V40.0975C83 35.6566 80.0633 32.0087 76.1993 31.0571ZM38.6406 73.5628C20.7114 73.5628 6.1825 58.6541 6.1825 40.2561C6.1825 21.8581 20.7114 6.94936 38.6406 6.94936C53.1695 6.94936 65.689 16.7828 69.7076 30.8985H64.4525C60.743 19.9548 50.5419 12.0247 38.486 12.0247C23.3389 12.0247 10.9739 24.7129 10.9739 40.2561C10.9739 55.7992 23.3389 68.4875 38.486 68.4875C50.3873 68.4875 60.5885 60.5573 64.4525 49.6137H69.7076C65.689 63.7294 53.1695 73.5628 38.6406 73.5628ZM38.6406 62.1433C26.8939 62.1433 17.311 52.3099 17.311 40.2561C17.311 28.2022 26.8939 18.3688 38.6406 18.3688C50.3873 18.3688 59.9702 28.2022 59.9702 40.2561C59.9702 52.3099 50.3873 62.1433 38.6406 62.1433ZM76.8175 40.5733C76.8175 42.0007 75.581 43.2695 74.1899 43.2695H73.5717H65.9981C66.1527 42.3179 66.1527 41.2077 66.1527 40.2561C66.1527 39.3045 66.1527 38.1942 65.9981 37.2426H74.1899C75.581 37.2426 76.8175 38.5114 76.8175 39.9389V40.5733Z" fill="#252525"/>
</svg>
