<svg width="80" height="80" viewBox="0 0 80 80" fill="none" xmlns="http://www.w3.org/2000/svg">
<path d="M79.4871 48.0173C76.1496 42.407 68.8678 38.8637 60.9792 38.8637C60.8275 38.8637 60.8275 38.8637 60.6758 38.8637C60.069 38.8637 59.3105 38.8637 58.7036 39.0114C66.8957 29.4149 74.4809 18.0469 79.7905 4.75951C80.3973 3.28314 79.6388 1.51149 78.1218 0.920938C76.6047 0.330389 74.7843 1.06858 74.1775 2.54495C72.2053 7.56462 69.7781 12.289 67.1991 16.8658C66.2889 9.77918 62.1928 3.57841 56.5798 0.920938C55.6696 0.478026 54.4559 0.478026 53.5457 1.06858C47.9327 4.61187 44.5952 11.9937 45.0503 19.8185C45.5054 26.4622 48.6912 32.3677 53.2423 35.7634C46.1122 43.8834 38.3753 50.8224 31.0935 56.2849C31.7003 53.9227 32.0037 51.4129 31.852 48.7554C31.3969 40.9307 27.1492 33.9917 21.081 31.1866C20.1708 30.7437 18.9572 30.7437 18.047 31.3342C12.4339 34.8775 9.09641 42.2594 9.55152 50.0842C10.0066 56.5802 12.889 62.3381 17.4401 65.7337C8.33789 71.344 1.96632 74.2967 1.81461 74.2967C0.297571 75.0349 -0.460949 76.6589 0.297571 78.1353C0.752684 79.1687 1.96632 79.9069 3.02824 79.9069C3.48336 79.9069 3.93847 79.7593 4.24188 79.6117C5.60721 79.0211 24.5702 70.6058 43.9883 53.3322C47.781 57.466 54.0008 60.1235 60.6758 60.1235C60.8275 60.1235 60.8275 60.1235 60.9792 60.1235C69.0195 59.9759 76.3013 56.285 79.6388 50.5271C79.9422 50.0842 79.9422 48.9031 79.4871 48.0173ZM50.9667 19.6709C50.6633 14.6512 52.3321 10.0745 55.2145 7.26934C58.5519 9.63154 60.8275 14.0607 61.1309 18.9327C61.4343 23.8047 59.7656 28.5291 56.8832 31.3342C53.5457 28.972 51.2701 24.6906 50.9667 19.6709ZM15.468 50.0842C15.1646 45.0645 16.8333 40.4877 19.7157 37.6826C23.0532 40.0448 25.3287 44.474 25.6322 49.346C25.9356 54.3657 24.2668 58.9424 21.3844 61.7475C18.047 59.3853 15.7714 54.9562 15.468 50.0842ZM60.8275 54.6609C55.6696 54.8086 50.9667 52.8893 48.3878 49.7889C50.9667 46.6885 55.6696 44.7692 60.6758 44.6216C65.8337 44.6216 70.5366 46.3932 73.1155 49.4936C70.5366 52.7417 65.9854 54.6609 60.8275 54.6609Z" fill="#252525"/>
<path d="M38.9821 32.6629C39.4372 32.6629 39.7406 32.5153 40.1958 32.3676C40.4992 32.22 40.9543 32.0724 41.106 31.7771C41.7128 31.1866 42.0162 30.4484 42.0162 29.7102C42.0162 28.972 41.7128 28.2338 41.106 27.6433C40.0441 26.6099 37.9202 26.6099 36.8582 27.6433C36.2514 28.2338 35.948 28.972 35.948 29.7102C35.948 30.4484 36.2514 31.1866 36.8582 31.7771C37.3134 32.3676 38.0719 32.6629 38.9821 32.6629Z" fill="#252525"/>
<path d="M40.9542 33.9917C40.8025 34.1393 40.6508 34.2869 40.4991 34.2869C40.3474 34.4346 40.1957 34.5822 40.1957 34.7299C40.044 34.8775 40.044 35.0251 39.8923 35.1728C39.8923 35.3204 39.7406 35.468 39.7406 35.7633C39.7406 35.911 39.7406 36.2062 39.7406 36.3539C39.7406 37.0921 40.044 37.8303 40.6508 38.4208C41.2577 39.0114 42.0162 39.3066 42.7747 39.3066C43.2298 39.3066 43.5332 39.159 43.9884 39.0114C44.2918 38.8637 44.7469 38.7161 44.8986 38.4208C45.202 38.1255 45.3537 37.8303 45.5054 37.3873C45.6571 37.0921 45.8088 36.6492 45.8088 36.2062C45.8088 36.0586 45.8088 35.7633 45.8088 35.6157C45.8088 35.468 45.6571 35.3204 45.6571 35.0251C45.6571 34.8775 45.5054 34.7299 45.3537 34.5822C45.202 34.4346 45.0503 34.2869 45.0503 34.1393C44.2918 33.4011 43.2298 33.1058 42.3196 33.4011C42.1679 33.4011 42.0162 33.5488 41.7128 33.5488C41.4094 33.6964 41.106 33.844 40.9542 33.9917Z" fill="#252525"/>
<path d="M40.9542 63.8144C41.1059 63.9621 41.2577 63.9621 41.4094 64.1097C41.5611 64.2573 41.7128 64.2573 42.0162 64.2573C42.1679 64.2573 42.4713 64.2573 42.623 64.2573C43.3815 64.2573 44.14 63.9621 44.7469 63.3715C45.0503 63.0762 45.202 62.781 45.3537 62.4857C45.5054 62.1904 45.6571 61.7475 45.6571 61.3046C45.6571 61.157 45.6571 60.8617 45.6571 60.714C45.6571 60.5664 45.5054 60.2711 45.5054 60.1235C45.5054 59.9759 45.3537 59.8282 45.202 59.6806C45.0503 59.533 44.8986 59.3853 44.8986 59.2377C44.1401 58.4995 43.0781 58.2042 42.1679 58.4995C42.0162 58.4995 41.8645 58.6471 41.5611 58.6471C41.4094 58.7948 41.2577 58.7948 41.1059 58.9424C40.9542 59.0901 40.8025 59.2377 40.6508 59.2377C40.044 59.8282 39.7406 60.5664 39.7406 61.3046C39.7406 62.0428 40.044 62.781 40.6508 63.3715C40.6508 63.5191 40.8025 63.6668 40.9542 63.8144Z" fill="#252525"/>
<path d="M50.6634 66.3243C50.5117 66.1766 50.5117 66.029 50.36 65.8814C50.2083 65.7337 50.0566 65.5861 50.0566 65.4384C49.9049 65.2908 49.7531 65.1432 49.6014 65.1432C49.4497 64.9955 49.298 64.9955 48.9946 64.8479C48.8429 64.7003 48.6912 64.7003 48.3878 64.7003C47.9327 64.5526 47.6293 64.5526 47.1741 64.7003C47.0224 64.7003 46.8707 64.8479 46.5673 64.8479C46.4156 64.8479 46.2639 64.9955 46.1122 65.1432C45.9605 65.2908 45.8088 65.4384 45.6571 65.4384C45.5054 65.4384 45.3537 65.5861 45.3537 65.7337C45.202 65.8814 45.202 66.029 45.0503 66.1766C45.0503 66.3243 44.8986 66.4719 44.8986 66.7672C44.8986 66.9148 44.8986 67.2101 44.8986 67.3577C44.8986 68.0959 45.202 68.8341 45.8088 69.4246C46.4156 70.0152 47.1741 70.3104 47.9327 70.3104C48.0844 70.3104 48.3878 70.3104 48.5395 70.3104C48.6912 70.3104 48.9946 70.1628 49.1463 70.1628C49.298 70.1628 49.4497 70.0152 49.6014 69.8675C49.7531 69.7199 49.9049 69.5722 50.0566 69.5722C50.6634 68.9817 50.9668 68.2435 50.9668 67.5053C50.9668 67.3577 50.9668 67.0624 50.9668 66.9148C50.8151 66.6195 50.6634 66.4719 50.6634 66.3243Z" fill="#252525"/>
<path d="M41.5611 65.7337C41.4094 65.5861 41.2577 65.5861 41.106 65.4384C40.9543 65.2908 40.8026 65.2908 40.4992 65.2908C40.0441 65.1431 39.7407 65.1431 39.2855 65.2908C39.1338 65.2908 38.9821 65.4384 38.6787 65.4384C38.527 65.4384 38.3753 65.5861 38.2236 65.7337C38.0719 65.7337 37.7685 65.8813 37.7685 66.029C37.1617 66.6195 36.8583 67.3577 36.8583 68.0959C36.8583 68.2436 36.8583 68.5388 36.8583 68.6865C36.8583 68.8341 37.01 68.9818 37.01 69.277C37.01 69.4247 37.1617 69.5723 37.3134 69.72C37.4651 69.8676 37.6168 70.0152 37.6168 70.1629C38.2236 70.7534 38.9821 71.0487 39.7407 71.0487C40.4992 71.0487 41.2577 70.7534 41.8645 70.1629C42.0162 70.0152 42.1679 69.8676 42.1679 69.72C42.3196 69.5723 42.3196 69.4247 42.4713 69.277C42.623 69.1294 42.623 68.9818 42.623 68.6865C42.623 68.5388 42.623 68.2436 42.623 68.0959C42.623 67.3577 42.3196 66.6195 41.7128 66.029C41.8645 65.8813 41.7128 65.7337 41.5611 65.7337Z" fill="#252525"/>
<path d="M33.6725 39.7496C33.8242 39.8972 33.9759 39.8972 34.1276 40.0449C34.2793 40.0449 34.431 40.1925 34.7344 40.1925C34.8861 40.1925 35.1895 40.1925 35.3412 40.1925C35.7963 40.1925 36.0997 40.1925 36.5548 39.8972C36.8582 39.7496 37.3133 39.602 37.6168 39.3067C38.2236 38.7161 38.527 37.978 38.527 37.2398C38.527 36.5016 38.2236 35.7634 37.6168 35.1729C37.4651 35.0252 37.3133 34.8776 37.1616 34.8776C37.0099 34.73 36.8582 34.73 36.7065 34.5823C36.5548 34.5823 36.4031 34.4347 36.0997 34.4347C35.6446 34.4347 35.3412 34.4347 34.8861 34.4347C34.7344 34.4347 34.5827 34.5823 34.2793 34.5823C34.1276 34.73 33.9759 34.73 33.8242 34.8776C33.6725 35.0252 33.2174 35.0252 33.2174 35.1729C32.6105 35.7634 32.3071 36.5016 32.3071 37.2398C32.3071 37.978 32.6105 38.7161 33.2174 39.3067C33.3691 39.602 33.5208 39.602 33.6725 39.7496Z" fill="#252525"/>
<path d="M36.7066 41.0783C36.0998 41.6688 35.7964 42.407 35.7964 43.1452C35.7964 43.8834 36.0998 44.6216 36.7066 45.2121C37.3134 45.8027 38.0719 46.098 38.8304 46.098C39.2856 46.098 39.589 46.098 40.0441 45.8027C40.3475 45.655 40.8026 45.5074 40.9543 45.2121C41.5611 44.6216 41.8645 43.8834 41.8645 43.1452C41.8645 42.407 41.5611 41.6688 40.9543 41.0783C39.8924 40.0448 37.9202 40.0448 36.7066 41.0783Z" fill="#252525"/>
</svg>
