<svg width="99" height="27" viewBox="0 0 99 27" fill="none" xmlns="http://www.w3.org/2000/svg">
<path d="M11.708 26.324C9.476 26.324 7.496 25.796 5.768 24.74C4.04 23.66 2.684 22.172 1.7 20.276C0.74 18.356 0.26 16.148 0.26 13.652C0.26 11.588 0.596 9.788 1.268 8.252C1.94 6.716 2.84 5.432 3.968 4.4C5.12 3.368 6.404 2.6 7.82 2.096C9.26 1.592 10.748 1.34 12.284 1.34C13.796 1.34 15.176 1.496 16.424 1.808C17.672 2.12 18.956 2.588 20.276 3.212C20.108 4.052 20 4.952 19.952 5.912C19.904 6.848 19.88 7.808 19.88 8.792C19.568 8.912 19.268 8.996 18.98 9.044C18.692 9.092 18.356 9.116 17.972 9.116C17.9 7.412 17.636 6.104 17.18 5.192C16.748 4.28 16.136 3.656 15.344 3.32C14.552 2.984 13.628 2.816 12.572 2.816C11.06 2.816 9.764 3.092 8.684 3.644C7.604 4.196 6.716 4.94 6.02 5.876C5.348 6.788 4.844 7.844 4.508 9.044C4.196 10.22 4.04 11.432 4.04 12.68C4.04 14.84 4.4 16.784 5.12 18.512C5.864 20.24 6.92 21.608 8.288 22.616C9.656 23.624 11.3 24.128 13.22 24.128C14.372 24.128 15.548 23.936 16.748 23.552C17.948 23.168 19.052 22.652 20.06 22.004C20.204 22.124 20.336 22.304 20.456 22.544C20.6 22.76 20.684 22.952 20.708 23.12C19.292 24.224 17.888 25.04 16.496 25.568C15.128 26.072 13.532 26.324 11.708 26.324ZM32.0955 26.324C30.4635 26.324 29.0355 25.976 27.8115 25.28C26.5875 24.56 25.6395 23.564 24.9675 22.292C24.2955 20.996 23.9595 19.484 23.9595 17.756C23.9595 16.124 24.3075 14.66 25.0035 13.364C25.6995 12.068 26.6595 11.048 27.8835 10.304C29.1075 9.56 30.5115 9.188 32.0955 9.188C33.7995 9.188 35.2515 9.548 36.4515 10.268C37.6755 10.988 38.6115 11.996 39.2595 13.292C39.9075 14.564 40.2315 16.052 40.2315 17.756C40.2315 19.412 39.8835 20.888 39.1875 22.184C38.5155 23.456 37.5675 24.464 36.3435 25.208C35.1435 25.952 33.7275 26.324 32.0955 26.324ZM32.3835 24.596C33.8235 24.596 34.8915 24.008 35.5875 22.832C36.2835 21.632 36.6315 20.084 36.6315 18.188C36.6315 16.7 36.4035 15.416 35.9475 14.336C35.5155 13.232 34.9275 12.392 34.1835 11.816C33.4395 11.216 32.6235 10.916 31.7355 10.916C30.3435 10.916 29.2995 11.48 28.6035 12.608C27.9315 13.736 27.5955 15.2 27.5955 17C27.5955 18.632 27.7875 20.012 28.1715 21.14C28.5795 22.268 29.1435 23.132 29.8635 23.732C30.5835 24.308 31.4235 24.596 32.3835 24.596ZM53.6677 9.872V11.42C52.3237 11.42 51.2917 11.48 50.5717 11.6C49.8757 11.696 49.2757 11.828 48.7717 11.996V9.872H53.6677ZM45.8557 9.044C45.8557 7.436 46.2277 6.02 46.9717 4.796C47.7397 3.548 48.7597 2.576 50.0317 1.88C51.3277 1.184 52.7797 0.835998 54.3877 0.835998C55.4197 0.835998 56.4157 1.016 57.3757 1.376C58.3597 1.712 59.2477 2.252 60.0397 2.996L58.3837 6.164C57.8797 5.108 57.2437 4.268 56.4757 3.644C55.7317 3.02 54.8557 2.708 53.8477 2.708C52.9357 2.708 52.1197 2.888 51.3997 3.248C50.6797 3.584 50.1157 4.148 49.7077 4.94C49.2997 5.732 49.0957 6.764 49.0957 8.036V18.008H45.8557V9.044ZM46.3957 9.872V11.924C45.7957 11.756 45.1837 11.648 44.5597 11.6C43.9357 11.528 43.4077 11.492 42.9757 11.492C42.9757 11.18 43.0117 10.892 43.0837 10.628C43.1557 10.364 43.2877 10.112 43.4797 9.872H46.3957ZM49.0957 20.708C49.0957 21.74 49.2037 22.532 49.4197 23.084C49.6357 23.636 49.9837 24.008 50.4637 24.2C50.9437 24.392 51.5557 24.512 52.2997 24.56C52.3717 24.752 52.4197 24.98 52.4437 25.244C52.4677 25.508 52.4797 25.796 52.4797 26.108C51.9277 26.084 51.2437 26.06 50.4277 26.036C49.6117 26.012 48.7837 26 47.9437 26C47.1037 26 46.2157 26.012 45.2797 26.036C44.3677 26.06 43.6717 26.084 43.1917 26.108C43.1917 25.796 43.2037 25.508 43.2277 25.244C43.2517 24.98 43.2997 24.752 43.3717 24.56C44.0197 24.512 44.5237 24.404 44.8837 24.236C45.2437 24.044 45.4957 23.732 45.6397 23.3C45.7837 22.844 45.8557 22.22 45.8557 21.428V17.828H49.0957V20.708ZM64.3957 9.872C64.3957 10.112 64.3717 10.388 64.3237 10.7C64.2757 10.988 64.1797 11.252 64.0357 11.492C63.3397 11.492 62.6797 11.54 62.0557 11.636C61.4557 11.708 60.9037 11.828 60.3997 11.996V9.872H64.3957ZM57.4837 8.432C57.4837 6.632 57.8437 5.132 58.5637 3.932C59.3077 2.708 60.2557 1.796 61.4077 1.196C62.5597 0.595999 63.7597 0.295998 65.0077 0.295998C65.9437 0.295998 66.6397 0.391999 67.0957 0.583999C67.5757 0.751998 68.0197 0.955998 68.4277 1.196C68.3797 1.94 68.3437 2.672 68.3197 3.392C68.2957 4.088 68.2837 4.76 68.2837 5.408C67.9717 5.504 67.6357 5.576 67.2757 5.624C66.9157 5.672 66.5677 5.696 66.2317 5.696C66.2317 4.736 66.0157 3.932 65.5837 3.284C65.1517 2.612 64.4317 2.276 63.4237 2.276C62.7757 2.276 62.2477 2.48 61.8397 2.888C61.4557 3.272 61.1677 3.836 60.9757 4.58C60.8077 5.324 60.7237 6.236 60.7237 7.316V18.008H57.4837V8.432ZM58.0237 9.872V11.924C57.4237 11.756 56.7877 11.636 56.1157 11.564C55.4677 11.468 54.6517 11.42 53.6677 11.42V9.872H58.0237ZM60.7237 20.708C60.7237 21.74 60.8317 22.532 61.0477 23.084C61.2637 23.636 61.5997 24.008 62.0557 24.2C62.5357 24.392 63.1597 24.512 63.9277 24.56C63.9997 24.752 64.0477 24.98 64.0717 25.244C64.0957 25.508 64.1077 25.796 64.1077 26.108C63.7477 26.084 63.3157 26.06 62.8117 26.036C62.3317 26.036 61.8037 26.024 61.2277 26C60.6757 26 60.1237 26 59.5717 26C58.7317 26 57.8437 26.012 56.9077 26.036C55.9717 26.06 55.2757 26.084 54.8197 26.108C54.8197 25.796 54.8317 25.508 54.8557 25.244C54.8797 24.98 54.9277 24.752 54.9997 24.56C55.6237 24.512 56.1157 24.404 56.4757 24.236C56.8597 24.044 57.1237 23.732 57.2677 23.3C57.4117 22.844 57.4837 22.22 57.4837 21.428V17.828H60.7237V20.708ZM74.6931 26.324C72.9891 26.324 71.5731 25.94 70.4451 25.172C69.3171 24.404 68.4651 23.372 67.8891 22.076C67.3371 20.756 67.0611 19.316 67.0611 17.756C67.0611 16.22 67.3611 14.804 67.9611 13.508C68.5611 12.212 69.4131 11.168 70.5171 10.376C71.6451 9.584 72.9771 9.188 74.5131 9.188C76.0731 9.188 77.3211 9.524 78.2571 10.196C79.2171 10.868 79.9251 11.768 80.3811 12.896C80.8611 14.024 81.1491 15.272 81.2451 16.64C81.1491 17.12 80.9691 17.528 80.7051 17.864C80.2971 17.864 79.6851 17.864 78.8691 17.864C78.0531 17.864 77.1291 17.876 76.0971 17.9C75.0651 17.9 74.0091 17.924 72.9291 17.972C71.8491 17.996 70.8291 18.032 69.8691 18.08V16.244H77.5011C77.5011 14.66 77.2131 13.376 76.6371 12.392C76.0611 11.408 75.2451 10.916 74.1891 10.916C73.6131 10.916 73.0491 11.096 72.4971 11.456C71.9451 11.792 71.4891 12.404 71.1291 13.292C70.7691 14.18 70.5891 15.416 70.5891 17C70.5891 18.176 70.7331 19.328 71.0211 20.456C71.3331 21.56 71.8611 22.484 72.6051 23.228C73.3731 23.948 74.4531 24.308 75.8451 24.308C76.6371 24.308 77.4171 24.14 78.1851 23.804C78.9531 23.444 79.6371 22.916 80.2371 22.22C80.4291 22.34 80.6091 22.508 80.7771 22.724C80.9451 22.94 81.0531 23.144 81.1011 23.336C80.2851 24.416 79.3371 25.184 78.2571 25.64C77.2011 26.096 76.0131 26.324 74.6931 26.324ZM91.7439 26.324C90.0399 26.324 88.6239 25.94 87.4959 25.172C86.3679 24.404 85.5159 23.372 84.9399 22.076C84.3879 20.756 84.1119 19.316 84.1119 17.756C84.1119 16.22 84.4119 14.804 85.0119 13.508C85.6119 12.212 86.4639 11.168 87.5679 10.376C88.6959 9.584 90.0279 9.188 91.5639 9.188C93.1239 9.188 94.3719 9.524 95.3079 10.196C96.2679 10.868 96.9759 11.768 97.4319 12.896C97.9119 14.024 98.1999 15.272 98.2959 16.64C98.1999 17.12 98.0199 17.528 97.7559 17.864C97.3479 17.864 96.7359 17.864 95.9199 17.864C95.1039 17.864 94.1799 17.876 93.1479 17.9C92.1159 17.9 91.0599 17.924 89.9799 17.972C88.8999 17.996 87.8799 18.032 86.9199 18.08V16.244H94.5519C94.5519 14.66 94.2639 13.376 93.6879 12.392C93.1119 11.408 92.2959 10.916 91.2399 10.916C90.6639 10.916 90.0999 11.096 89.5479 11.456C88.9959 11.792 88.5399 12.404 88.1799 13.292C87.8199 14.18 87.6399 15.416 87.6399 17C87.6399 18.176 87.7839 19.328 88.0719 20.456C88.3839 21.56 88.9119 22.484 89.6559 23.228C90.4239 23.948 91.5039 24.308 92.8959 24.308C93.6879 24.308 94.4679 24.14 95.2359 23.804C96.0039 23.444 96.6879 22.916 97.2879 22.22C97.4799 22.34 97.6599 22.508 97.8279 22.724C97.9959 22.94 98.1039 23.144 98.1519 23.336C97.3359 24.416 96.3879 25.184 95.3079 25.64C94.2519 26.096 93.0639 26.324 91.7439 26.324Z" fill="white"/>
</svg>
